<svg width="32" height="32" viewBox="0 0 32 32" fill="none" xmlns="http://www.w3.org/2000/svg">
<rect width="32" height="32" rx="16" fill="#73C319"/>
<path d="M24.0987 12.9975H22.8208L19.4802 7L17.9179 7.91588L20.7482 12.9975H11.2503L14.0815 7.91588L12.5183 7L9.17775 12.9975H7.89984C7.76152 12.9977 7.62509 13.0305 7.50113 13.0935C7.37717 13.1565 7.269 13.2479 7.18502 13.3606C7.10105 13.4734 7.04351 13.6045 7.01687 13.7437C6.99022 13.883 6.9952 14.0267 7.0314 14.1636L9.55032 23.64C9.65503 24.0304 9.8816 24.3748 10.1953 24.6204C10.509 24.866 10.8926 24.9994 11.2872 25H20.7122C21.5204 25 22.2349 24.4414 22.4491 23.6382L24.968 14.1627C25.0046 14.0257 25.0099 13.8818 24.9834 13.7424C24.9568 13.603 24.8992 13.4717 24.815 13.3589C24.7309 13.2461 24.6224 13.1548 24.4981 13.0921C24.3739 13.0294 24.2371 12.997 24.0987 12.9975ZM20.7113 23.1535V24.0767V23.1535H11.2872L9.07876 14.8441H22.9198L20.7113 23.1535Z" fill="white"/>
<path d="M18.3004 18.299H16.5118V16.5122C16.5118 16.2293 16.2836 16 16.0007 16C15.7178 16 15.4897 16.2293 15.4897 16.5123V18.3003H13.7002C13.4173 18.3003 13.1874 18.5296 13.1875 18.8126C13.1874 18.9539 13.2445 19.0835 13.3371 19.1761C13.4297 19.2689 13.5576 19.3275 13.6989 19.3275H15.4897V21.113C15.4897 21.2544 15.5458 21.3825 15.6385 21.475C15.7312 21.5676 15.8587 21.625 16.0002 21.625C16.2829 21.625 16.5118 21.3957 16.5118 21.113V19.3273H18.3004C18.5833 19.3273 18.8126 19.096 18.8125 18.8132C18.8124 18.5305 18.583 18.299 18.3004 18.299Z" fill="white"/>
</svg>
