<svg width="38" height="38" viewBox="0 0 38 38" fill="none" xmlns="http://www.w3.org/2000/svg">
<path d="M36.0972 12.6615H33.3994L26.3471 0L23.0489 1.93353L29.024 12.6615H8.97285L14.9498 1.93353L11.6498 0L4.59747 12.6615H1.89966C1.60765 12.6618 1.31963 12.7311 1.05794 12.864C0.796239 12.997 0.567897 13.1899 0.390607 13.428C0.213318 13.6661 0.0918447 13.9428 0.035604 14.2368C-0.0206366 14.5307 -0.0101337 14.8341 0.0662981 15.1232L5.38401 35.129C5.60507 35.953 6.08337 36.68 6.74564 37.1986C7.40791 37.7172 8.21763 37.9987 9.05075 38H28.948C30.6541 38 32.1626 36.8208 32.6147 35.125L37.9325 15.1213C38.0098 14.832 38.0209 14.5283 37.9649 14.234C37.9089 13.9396 37.7872 13.6625 37.6095 13.4243C37.4318 13.1862 37.2029 12.9934 36.9405 12.861C36.6782 12.7287 36.3895 12.6604 36.0972 12.6615ZM28.9461 34.1018V36.0509V34.1018H9.05075L4.38848 16.5597H33.6084L28.9461 34.1018Z" fill="#73C319"/>
<path d="M13.2989 22.3579C13.2989 21.3086 14.1495 20.458 15.1987 20.458C16.248 20.458 17.0986 21.3086 17.0986 22.3579V28.3037C17.0986 29.353 16.248 30.2036 15.1987 30.2036C14.1495 30.2036 13.2989 29.353 13.2989 28.3037V22.3579ZM20.8983 22.3579C20.8983 21.3086 21.7489 20.458 22.7982 20.458C23.8474 20.458 24.698 21.3086 24.698 22.3579V28.3037C24.698 29.353 23.8474 30.2036 22.7982 30.2036C21.7489 30.2036 20.8983 29.353 20.8983 28.3037V22.3579Z" fill="#73C319"/>
</svg>
