<svg width="56" height="56" viewBox="0 0 56 56" fill="none" xmlns="http://www.w3.org/2000/svg">
<path d="M27.9885 36.8413V36.9064C27.9885 37.0185 27.9668 37.1324 27.9234 37.2481V37.3132C28.0273 36.9074 28.098 36.4938 28.1348 36.0765L27.9885 36.8413Z" fill="white"/>
<path d="M55.7079 17.2324H53.5393C52.9802 14.2239 51.6753 11.4039 49.7444 9.03084C49.5678 9.72619 49.2106 10.3625 48.7089 10.8751C47.9174 11.6128 46.7952 11.8081 45.8031 11.96C45.0766 12.0847 44.323 12.2149 44.0032 12.5024C43.6833 12.7899 43.461 13.7174 43.2659 14.4985L43.3743 15.1006C44.7567 17.1173 45.3209 19.5845 44.9525 22.002C44.584 24.4195 43.3105 26.6063 41.3901 28.119C41.1298 27.4084 40.8479 26.7195 40.5118 26.0361C41.2658 25.3556 41.8738 24.5289 42.2987 23.6061C42.7235 22.6834 42.9565 21.6838 42.9835 20.6682C43.0104 19.6526 42.8307 18.6421 42.4553 17.6981C42.08 16.7541 41.5167 15.8963 40.7998 15.1768C40.0829 14.4573 39.2273 13.8911 38.2849 13.5126C37.3426 13.1341 36.3332 12.9512 35.3181 12.975C34.3029 12.9989 33.3032 13.2289 32.3796 13.6512C31.4561 14.0735 30.628 14.6792 29.9456 15.4315C29.2669 15.098 28.57 14.8028 27.8583 14.5474C29.453 12.5467 31.7762 11.2612 34.3175 10.9734C36.8589 10.6856 39.4105 11.4189 41.4117 13.0123C41.5781 12.2358 41.953 11.5194 42.496 10.9402C43.2875 10.2025 44.4098 10.0072 45.4019 9.85533C46.1283 9.73057 46.8819 9.60039 47.2018 9.3129C47.5216 9.02541 47.7005 8.26601 47.8794 7.55C47.8794 7.42524 47.9391 7.30048 47.9716 7.17572C45.8218 5.15523 43.2178 3.68177 40.3794 2.87968C37.5409 2.07758 34.5513 1.97039 31.6627 2.56713C28.7742 3.16388 26.0714 4.44706 23.7826 6.3084C21.4938 8.16974 19.686 10.5546 18.5119 13.2618C17.6888 13.3305 16.8705 13.4483 16.0614 13.6144C17.6019 9.32684 20.5212 5.67217 24.3614 3.22364C28.2016 0.775097 32.7455 -0.3288 37.2804 0.0850943C41.8152 0.498989 46.0845 2.40726 49.4185 5.51059C52.7526 8.61392 54.9628 12.7368 55.7025 17.2324H55.7079Z" fill="white"/>
<path d="M55.7296 23.7144C55.1458 27.363 53.5996 30.7896 51.2504 33.6407C48.9012 36.4917 45.8342 38.6639 42.3659 39.9331C42.4798 39.3527 42.5719 38.7669 42.6424 38.1648L42.6803 38.1268L42.7237 37.4705C45.5263 36.245 47.9827 34.3454 49.8743 31.9407C51.766 29.5361 53.0343 26.7008 53.5665 23.6873L55.7296 23.7144Z" fill="white"/>
<path d="M13.2697 22.3333L12.8232 22.6312L13.9001 24.2468L14.3466 23.9488L13.2697 22.3333Z" fill="white"/>
<path d="M32.8297 27.7535L31.601 29.2567L32.0164 29.5966L33.2452 28.0935L32.8297 27.7535Z" fill="white"/>
<path d="M34.4186 30.9115L34.1989 32.8409L34.7322 32.9017L34.9519 30.9723L34.4186 30.9115Z" fill="white"/>
<path d="M29.3109 23.3624L28.7805 23.4442L29.076 25.3634L29.6065 25.2816L29.3109 23.3624Z" fill="white"/>
<path d="M22.5558 20.4319L22.2938 20.9006L23.9876 21.8485L24.2496 21.3799L22.5558 20.4319Z" fill="white"/>
<path d="M19.2734 22.2118L17.4166 22.7769L17.5728 23.2907L19.4296 22.7255L19.2734 22.2118Z" fill="white"/>
<path d="M8.11741 26.5352L4.8876 27.6127L5.05737 28.1221L8.28718 27.0446L8.11741 26.5352Z" fill="white"/>
<path d="M20.3118 15.3447C9.13293 15.3447 -0.202666 24.8102 0.00334574 36.2229C0.00334574 36.3694 0.00334574 36.5104 0.00334574 36.6406C0.288854 41.846 2.54746 46.7466 6.31887 50.3437C10.0903 53.9408 15.0907 55.9636 20.3009 56C25.4291 55.9682 30.3584 54.0113 34.1133 50.5166C37.8681 47.0218 40.1749 42.244 40.5769 37.1288C41.2979 25.3472 31.7834 15.3447 20.3118 15.3447ZM20.2196 53.9062C15.7077 53.9023 11.3584 52.2201 8.01695 49.1866C4.67551 46.1531 2.5806 41.9849 2.13936 37.4922C2.33722 37.0304 2.62892 36.6147 2.99594 36.2717C3.2128 36.0656 4.03142 35.3062 4.93679 35.3876C5.67952 35.4581 6.06986 36.0493 6.5632 36.5321C7.25714 37.1776 8.47694 37.8882 10.7322 37.9913C11.1417 39.6049 11.9508 41.0894 13.085 42.3077C14.2192 43.5259 15.6418 44.4386 17.2216 44.9615V42.6128C15.6577 41.9077 14.3802 40.6909 13.5995 39.1627C12.8188 37.6345 12.5813 35.8858 12.9262 34.2045C13.2711 32.5233 14.1777 31.0096 15.497 29.9126C16.8162 28.8156 18.4694 28.2006 20.1845 28.1689C21.8996 28.1372 23.5743 28.6907 24.9331 29.7382C26.292 30.7857 27.2539 32.2649 27.6606 33.9322C28.0673 35.5996 27.8945 37.3558 27.1708 38.9119C26.447 40.4679 25.2153 41.7311 23.6785 42.4934V44.815C26.7795 43.5566 28.7691 40.7088 29.5498 38.0835C30.3219 37.6474 31.0484 37.1349 31.7183 36.5538C32.5316 35.8432 32.8026 35.4147 33.3448 35.4147C33.8869 35.4147 34.1851 35.8541 34.9712 36.5592C35.3886 36.9281 36.5976 37.9479 37.1939 38.1106C37.5049 38.189 37.8225 38.238 38.1427 38.257C37.5438 42.5896 35.4 46.5596 32.1063 49.4354C28.8126 52.3112 24.5911 53.899 20.2196 53.9062ZM38.0559 36.2121C37.8337 36.288 37.6547 35.7998 36.5379 34.8723C35.2477 33.7874 34.4561 33.1745 33.4478 33.1745C32.2496 33.1745 31.2792 34.0369 30.363 34.8723L29.9998 35.1977C29.9296 33.835 29.5727 32.5025 28.9523 31.2874C28.332 30.0722 27.4623 29.0018 26.4 28.1461L27.3054 27.0613L26.9042 26.6761L25.9934 27.7881C24.8514 26.963 23.5439 26.3961 22.1613 26.1267C20.7787 25.8572 19.3542 25.8916 17.9862 26.2274C16.6182 26.5633 15.3395 27.1926 14.2386 28.0718C13.1378 28.951 12.241 30.0591 11.6105 31.3193L10.3039 28.9326L9.83229 29.193L11.334 31.9323C10.8403 33.0903 10.5805 34.3347 10.5696 35.5937C10.4147 35.7177 10.2497 35.8284 10.0762 35.9246C10.0364 35.9478 9.99467 35.9678 9.95156 35.9843C9.88843 36.0132 9.82034 36.0298 9.75097 36.0331C9.1763 36.0331 8.12455 34.8885 8.12455 34.8885C7.67721 34.3879 7.13144 33.985 6.52137 33.705C5.9113 33.425 5.25005 33.2739 4.57898 33.2612C4.19948 33.2612 3.23448 33.4348 2.17731 34.7095C2.36979 31.1624 3.59473 27.7489 5.70135 24.8894C7.80798 22.0299 10.7043 19.8492 14.0338 18.6156L16.7012 19.5052L16.8746 19.0007L14.8687 18.3335C19.3194 16.9388 24.1359 17.3117 28.3192 19.375L26.9042 20.0856L27.1427 20.5683L28.9209 19.6788C31.7717 21.2026 34.1567 23.4708 35.8223 26.2422C38.3975 30.6576 38.7444 35.968 38.0559 36.2121Z" fill="white"/>
<path d="M30.6775 4.84324C30.9739 4.84324 31.2142 4.60281 31.2142 4.30623C31.2142 4.00965 30.9739 3.76923 30.6775 3.76923C30.381 3.76923 30.1407 4.00965 30.1407 4.30623C30.1407 4.60281 30.381 4.84324 30.6775 4.84324Z" fill="white"/>
<path d="M23.9495 12.3885C24.3956 12.3885 24.7573 12.0266 24.7573 11.5803C24.7573 11.1339 24.3956 10.772 23.9495 10.772C23.5034 10.772 23.1417 11.1339 23.1417 11.5803C23.1417 12.0266 23.5034 12.3885 23.9495 12.3885Z" fill="white"/>
<path d="M37.6765 9.15558C38.2723 9.15558 38.7553 8.6723 38.7553 8.07614C38.7553 7.47999 38.2723 6.9967 37.6765 6.9967C37.0806 6.9967 36.5976 7.47999 36.5976 8.07614C36.5976 8.6723 37.0806 9.15558 37.6765 9.15558Z" fill="white"/>
<path d="M43.8676 6.46516C44.0173 6.46516 44.1387 6.34373 44.1387 6.19395C44.1387 6.04416 44.0173 5.92273 43.8676 5.92273C43.7179 5.92273 43.5966 6.04416 43.5966 6.19395C43.5966 6.34373 43.7179 6.46516 43.8676 6.46516Z" fill="white"/>
<path d="M28.5251 10.772C29.121 10.772 29.604 10.2888 29.604 9.6926C29.604 9.09644 29.121 8.61316 28.5251 8.61316C27.9293 8.61316 27.4463 9.09644 27.4463 9.6926C27.4463 10.2888 27.9293 10.772 28.5251 10.772Z" fill="white"/>
<path d="M38.2132 4.84324C38.5096 4.84324 38.7499 4.60281 38.7499 4.30623C38.7499 4.00965 38.5096 3.76923 38.2132 3.76923C37.9167 3.76923 37.6765 4.00965 37.6765 4.30623C37.6765 4.60281 37.9167 4.84324 38.2132 4.84324Z" fill="white"/>
<path d="M32.8297 8.61314C33.1262 8.61314 33.3665 8.37271 33.3665 8.07613C33.3665 7.77955 33.1262 7.53912 32.8297 7.53912C32.5333 7.53912 32.293 7.77955 32.293 8.07613C32.293 8.37271 32.5333 8.61314 32.8297 8.61314Z" fill="white"/>
<path d="M20.4528 43.0793H20.4473C19.8545 43.0793 19.3739 43.5601 19.3739 44.1533V44.1587C19.3739 44.7519 19.8545 45.2327 20.4473 45.2327H20.4528C21.0456 45.2327 21.5262 44.7519 21.5262 44.1587V44.1533C21.5262 43.5601 21.0456 43.0793 20.4528 43.0793Z" fill="white"/>
<path d="M54.9266 19.3568L54.9211 19.3567C54.3283 19.3508 53.8429 19.8269 53.837 20.42L53.8369 20.4254C53.831 21.0186 54.3068 21.5043 54.8996 21.5102L54.905 21.5103C55.4979 21.5162 55.9833 21.0401 55.9892 20.447L55.9893 20.4416C55.9952 19.8484 55.5194 19.3627 54.9266 19.3568Z" fill="white"/>
</svg>
