<svg width="56" height="56" viewBox="0 0 56 56" fill="none" xmlns="http://www.w3.org/2000/svg">
<path d="M55.4924 8.54708L40.0487 0.146684C39.7761 -0.00265626 39.438 -0.0399915 39.1326 0.0440125C38.8272 0.128016 38.5764 0.324026 38.4564 0.585372L34.7482 8.39774H16.0326C15.4982 5.03758 12.128 2.43346 8.05992 2.43346C3.62096 2.43346 0 5.53227 0 9.33112C0 12.8126 3.04292 15.6968 6.96927 16.1541V23.9385C6.96927 30.6868 12.5861 36.3337 20.0353 37.6218V50.6704L15.8145 51.5011C14.6584 51.7251 13.884 52.5932 13.9276 53.6106C13.9713 54.6186 14.8001 55.4213 15.9562 55.58C17.4504 55.776 19.2173 55.916 21.0605 55.972C21.7803 55.9907 22.522 56 23.2745 56C24.0271 56 24.7687 55.9907 25.4776 55.9627C27.3426 55.9067 29.1095 55.776 30.5928 55.5706C31.7489 55.4213 32.5887 54.6093 32.6214 53.6012C32.665 52.5838 31.8907 51.7251 30.7346 51.4918L26.5137 50.6611V37.6311C33.9629 36.3337 39.5798 30.6961 39.5798 23.9478V9.33112C39.5798 8.81776 39.089 8.39774 38.4891 8.39774H37.0931L39.9724 2.32145L54.3145 10.1245C54.8271 10.4045 55.4924 10.2738 55.8196 9.83514C56.1577 9.39646 56.005 8.81776 55.4924 8.54708ZM30.8 16.7515C30.1456 16.9195 29.513 17.1342 28.935 17.4328C28.0734 17.8715 27.0373 17.8715 26.1647 17.4235C23.5254 16.0981 20.1225 16.0888 17.4613 17.4328C16.5997 17.8809 15.5636 17.8809 14.6911 17.4422C13.0224 16.5928 10.9938 16.2754 9.15057 16.4995V15.3047V10.2645H33.8756L30.8 16.7515ZM2.1813 9.33112C2.1813 6.55899 4.82068 4.30021 8.05992 4.30021C10.9283 4.30021 13.3169 6.07363 13.8295 8.39774H8.05992C7.46006 8.39774 6.96927 8.81776 6.96927 9.33112V14.2687C4.24264 13.83 2.1813 11.7859 2.1813 9.33112ZM24.3652 51.4918C24.3761 51.5571 24.387 51.6131 24.4088 51.6785C24.4306 51.7345 24.4524 51.7905 24.4851 51.8371C24.5179 51.8931 24.5615 51.9398 24.6051 51.9865C24.6487 52.0331 24.6924 52.0798 24.7469 52.1171C24.8014 52.1545 24.856 52.1825 24.9105 52.2105C24.9759 52.2385 25.0414 52.2665 25.1177 52.2852C25.1504 52.2945 25.1722 52.3132 25.205 52.3225L30.2656 53.3212C30.3201 53.3305 30.4619 53.3585 30.451 53.5452C30.4401 53.7039 30.331 53.7226 30.2656 53.7319C28.8587 53.9186 27.179 54.0492 25.3904 54.0959C24.0271 54.1519 22.5547 54.1519 21.1586 54.0959C19.3809 54.0399 17.7013 53.9186 16.2943 53.7319C16.2289 53.7226 16.1089 53.7039 16.1089 53.5452C16.098 53.3679 16.2507 53.3399 16.2943 53.3212L21.355 52.3225C21.3877 52.3132 21.4095 52.2945 21.4422 52.2852C21.5186 52.2665 21.584 52.2385 21.6494 52.2105C21.704 52.1825 21.7694 52.1545 21.813 52.1171C21.8676 52.0798 21.9112 52.0331 21.9548 51.9865C21.9984 51.9398 22.0421 51.8931 22.0748 51.8371C22.1075 51.7811 22.1293 51.7345 22.1511 51.6785C22.173 51.6131 22.1839 51.5571 22.1948 51.4918C22.1948 51.4638 22.2166 51.4451 22.2166 51.4171V37.8645C22.5765 37.8831 22.9255 37.9111 23.2854 37.9111C23.6453 37.9111 23.9943 37.8831 24.3543 37.8645V51.4171C24.3543 51.4451 24.3652 51.4731 24.3652 51.4918ZM23.2745 36.0444C15.4763 36.0444 9.13966 30.6215 9.13966 23.9478V18.3755C10.5793 18.1329 12.2371 18.3569 13.5677 19.0382C14.353 19.4303 15.2146 19.6356 16.0653 19.6356C16.9269 19.6356 17.7885 19.4303 18.5629 19.0289C20.537 18.0395 23.0891 18.0395 25.0414 19.0196C26.4701 19.7569 28.1497 19.813 29.633 19.2156L23.8962 31.3402C23.6671 31.8162 23.9398 32.3575 24.496 32.5536C24.6269 32.6002 24.7687 32.6189 24.9105 32.6189C25.3468 32.6189 25.7503 32.3949 25.9248 32.0309L32.4033 18.3382C33.7666 18.1702 35.2935 18.3849 36.5477 19.0289C36.8313 19.1689 37.1149 19.2809 37.4203 19.3743V23.9385C37.4203 30.6121 31.0727 36.0444 23.2745 36.0444ZM37.4203 10.2645V17.3302C36.166 16.7328 34.7591 16.4155 33.3194 16.4061L36.2205 10.2645H37.4203Z" fill="white"/>
</svg>
