<svg width="56" height="56" viewBox="0 0 56 56" fill="none" xmlns="http://www.w3.org/2000/svg">
<path d="M11.118 27.2454C10.7241 26.8544 10.0854 26.8545 9.69168 27.2453C9.2977 27.6361 9.2977 28.2697 9.69168 28.6606C10.0854 29.0515 10.7241 29.0514 11.1179 28.6605C11.5118 28.2697 11.512 27.6361 11.118 27.2454Z" fill="white"/>
<path d="M44.479 40.6891C44.1255 40.3714 43.5795 40.3983 43.2595 40.7493C42.9413 41.0982 42.6024 41.4348 42.2522 41.7501C39.6005 44.1388 36.1658 45.4543 32.5808 45.4543C32.1039 45.4543 31.7173 45.8381 31.7173 46.3115C31.7172 46.7849 32.1038 47.1687 32.5807 47.1687C36.5956 47.1687 40.4425 45.6952 43.4122 43.0199C43.8041 42.667 44.1833 42.2902 44.5395 41.8998C44.8597 41.5489 44.8326 41.0068 44.479 40.6891Z" fill="white"/>
<path d="M47.3584 35.0506C46.9049 34.9041 46.4177 35.1498 46.2699 35.6C45.8772 36.7961 45.325 37.9369 44.6288 38.9907C44.3674 39.3868 44.4787 39.918 44.8774 40.1777C45.0234 40.2727 45.1876 40.3181 45.35 40.3181C45.6313 40.3181 45.907 40.1819 46.0728 39.9309C46.8528 38.7501 47.4716 37.4717 47.9117 36.1312C48.0596 35.6813 47.8119 35.1974 47.3584 35.0506Z" fill="white"/>
<path d="M41.2732 0H38.732C38.2552 0 37.8686 0.383795 37.8686 0.857167C37.8686 1.33054 38.2552 1.71433 38.732 1.71433H41.2732C42.8279 1.71433 44.0929 2.96919 44.0929 4.5118C44.0929 6.05442 42.828 7.30938 41.2732 7.30938H38.7732H35.5339H33.9643C31.7865 7.30938 30.0148 9.06757 30.0148 11.2287V13.217C30.0148 13.6903 30.4014 14.0741 30.8782 14.0741C31.3551 14.0741 31.7417 13.6903 31.7417 13.2169V11.2286C31.7417 10.0127 32.7389 9.0236 33.9644 9.0236H35.534H38.7733H41.2733C43.7803 9.0236 45.8198 6.99963 45.8198 4.51169C45.8198 2.02397 43.7803 0 41.2732 0Z" fill="white"/>
<path d="M18.5321 19.2656H11.9554C10.1901 19.2656 8.75376 17.8406 8.75376 16.0892C8.75376 14.3378 10.19 12.9129 11.9554 12.9129H14.9817C15.4585 12.9129 15.8451 12.5291 15.8451 12.0557C15.8451 11.5823 15.4585 11.1985 14.9817 11.1985H11.9554C9.23787 11.1985 7.02701 13.3925 7.02701 16.0891C7.02701 18.7856 9.23798 20.9797 11.9554 20.9797H18.5321C19.009 20.9797 19.3956 20.5959 19.3956 20.1225C19.3956 19.6491 19.009 19.2656 18.5321 19.2656Z" fill="white"/>
<path d="M21.4845 2.1825H17.4757C16.9989 2.1825 16.6123 2.56629 16.6123 3.03966C16.6123 3.51303 16.9987 3.89683 17.4756 3.89683H21.4844C23.5133 3.89683 25.1641 5.5346 25.1641 7.54764C25.1641 9.56078 23.5133 11.1986 21.4844 11.1986H17.9339C17.4571 11.1986 17.0705 11.5823 17.0705 12.0557C17.0705 12.5291 17.4571 12.9129 17.9339 12.9129H21.4845C24.4657 12.9129 26.891 10.5061 26.891 7.54764C26.891 4.58928 24.4657 2.1825 21.4845 2.1825Z" fill="white"/>
<path d="M41.6343 12.8815H39.5721C39.0952 12.8815 38.7086 13.2653 38.7086 13.7387C38.7086 14.2121 39.0952 14.5959 39.5721 14.5959H41.6343C43.2839 14.5959 44.6261 15.9274 44.6261 17.5641C44.626 19.2007 43.2839 20.5323 41.6343 20.5323H35.8902C35.4133 20.5323 35.0267 20.9161 35.0267 21.3894C35.0267 21.8628 35.4133 22.2466 35.8902 22.2466H41.6343C44.2362 22.2466 46.3528 20.1461 46.3528 17.5641C46.3528 14.9821 44.2362 12.8815 41.6343 12.8815Z" fill="white"/>
<path d="M52.8465 32.1743H47.4037C46.8231 30.2641 45.0337 28.8688 42.9218 28.8688C42.491 28.8688 42.074 28.9279 41.6776 29.0365L39.1781 26.5564C38.8054 26.1868 38.3097 25.9832 37.7827 25.9832C37.2557 25.9832 36.7601 26.1868 36.3873 26.5567L34.6871 28.2437L33.896 24.836C33.7888 24.3746 33.3255 24.0871 32.8607 24.1932C32.3961 24.2995 32.1061 24.7596 32.2131 25.221L32.939 28.348L32.6606 28.0717C32.2879 27.7018 31.7921 27.498 31.2652 27.498C30.7379 27.498 30.2423 27.7018 29.8696 28.0717L25.7348 32.1743H25.6019C25.3391 30.6559 24.3317 29.3875 22.9664 28.7538L24.9868 20.0504C25.066 19.7096 25.3674 19.4716 25.7201 19.4716H30.2796C30.6322 19.4716 30.9335 19.7097 31.0127 20.0503L31.4701 22.0209C31.5773 22.4822 32.0409 22.7695 32.5054 22.6636C32.97 22.5572 33.2599 22.0971 33.1528 21.6358L32.6956 19.6655C32.4348 18.5421 31.4413 17.7574 30.2798 17.7574H25.7203C24.5588 17.7574 23.5653 18.5419 23.3044 19.6655L22.0926 24.8854L20.7169 23.5204C20.3442 23.1505 19.8484 22.9468 19.3213 22.9468C18.7941 22.9468 18.2986 23.1505 17.9257 23.5204L15.3679 26.0582C13.6295 24.7991 11.6913 24.0794 9.9345 24.0794C8.54124 24.0794 7.35103 24.5296 6.49266 25.3812C5.31777 26.547 4.91211 28.2979 5.35027 30.3112C5.48567 30.9329 5.70007 31.5582 5.98201 32.1746H3.15373C1.41474 32.1746 0 33.5786 0 35.3043C0 37.03 1.41474 38.4341 3.15373 38.4341H5.90555C6.9685 40.957 8.5842 43.2419 10.6674 45.1186C13.4313 47.6085 16.8404 49.2131 20.4819 49.7766L19.8177 51.3828H18.3452C17.2238 51.3828 16.3116 52.2882 16.3116 53.4011V53.9817C16.3116 55.0946 17.2239 56 18.3452 56H30.3026C30.7794 56 31.166 55.6162 31.166 55.1428C31.166 54.6695 30.7794 54.2857 30.3026 54.2857H18.3454C18.1762 54.2857 18.0386 54.1493 18.0386 53.9817V53.4011C18.0386 53.2334 18.1763 53.0971 18.3454 53.0971H37.6548C37.824 53.0971 37.9617 53.2335 37.9617 53.4011V53.9817C37.9617 54.1494 37.8239 54.2857 37.6548 54.2857H33.7561C33.2793 54.2857 32.8927 54.6695 32.8927 55.1428C32.8927 55.6162 33.2793 56 33.7561 56H37.6548C38.7762 56 39.6884 55.0946 39.6884 53.9817V53.4011C39.6884 52.2882 38.7761 51.3828 37.6548 51.3828H36.1823L35.5181 49.7766C39.1597 49.213 42.5687 47.6084 45.3326 45.1186C47.4159 43.242 49.0316 40.957 50.0945 38.4341H52.8463C54.5851 38.4341 56 37.03 56 35.3043C56 33.5786 54.5854 32.1743 52.8465 32.1743ZM3.15373 36.7195C2.36698 36.7195 1.72687 36.0846 1.72687 35.3041C1.72687 34.5236 2.36709 33.8887 3.15373 33.8887H4.63899C4.77946 34.8523 4.99485 35.7981 5.28064 36.7195H3.15373ZM42.9218 30.5832C44.0637 30.5832 45.0536 31.2311 45.5448 32.1743H40.2988C40.7899 31.231 41.7798 30.5832 42.9218 30.5832ZM37.6078 27.7692C37.6676 27.7098 37.7359 27.6974 37.7827 27.6974C37.8296 27.6974 37.898 27.7099 37.9576 27.7691L40.0524 29.8477C39.2956 30.4324 38.7235 31.2417 38.4399 32.1743H36.7958L34.9821 30.3747L37.6078 27.7692ZM31.0905 29.2842C31.1504 29.225 31.2187 29.2125 31.2654 29.2125C31.3121 29.2125 31.3804 29.225 31.4402 29.2843L34.3531 32.1745H28.1778L31.0905 29.2842ZM23.8347 32.1743H19.865C19.712 31.646 19.507 31.1179 19.2514 30.5976C19.7395 30.243 20.3404 30.0324 20.9905 30.0324C22.3438 30.0323 23.4867 30.9403 23.8347 32.1743ZM19.1467 24.7326C19.2065 24.6732 19.2748 24.6608 19.3215 24.6608C19.3683 24.6608 19.4365 24.6732 19.4963 24.7326L21.6353 26.8551L21.2932 28.3289C21.193 28.3224 21.0921 28.3181 20.9903 28.3181C20.0211 28.3181 19.1204 28.6127 18.3727 29.1154C17.9422 28.4972 17.4443 27.9023 16.8843 27.3467C16.8221 27.285 16.7594 27.2242 16.6964 27.164L19.1467 24.7326ZM7.71372 26.5934C8.38016 25.9321 9.28954 25.7933 9.93483 25.7933C11.7766 25.7933 13.9183 26.8271 15.6635 28.5589C16.7689 29.6557 17.5948 30.9124 18.0521 32.1741H11.7734L13.7732 30.1899C14.1105 29.8553 14.1106 29.3125 13.7735 28.9778C13.4364 28.6428 12.8896 28.6428 12.5526 28.9774L9.33096 32.1742H7.91666C7.50064 31.4422 7.19987 30.6901 7.03846 29.9487C6.72843 28.5247 6.96828 27.3332 7.71372 26.5934ZM21.6844 51.3825L22.2696 49.9674C22.6513 49.9902 23.0346 50.0029 23.4194 50.0029H32.5806C32.9654 50.0029 33.3488 49.9902 33.7304 49.9674L34.3156 51.3825H21.6844ZM44.1723 43.8486C40.9939 46.7117 36.8773 48.2886 32.5808 48.2886H23.4195C19.1229 48.2886 15.0062 46.7118 11.8278 43.8486C8.90999 41.2202 6.99979 37.7125 6.3848 33.8886H49.6151C49.0003 37.7126 47.0902 41.2203 44.1723 43.8486ZM52.8465 36.7195H50.7195C51.0053 35.7982 51.2207 34.8523 51.3611 33.8887H52.8464C53.6332 33.8887 54.2732 34.5236 54.2732 35.3041C54.2732 36.0846 53.6332 36.7195 52.8465 36.7195Z" fill="white"/>
</svg>
