<svg width="38" height="32" viewBox="0 0 38 32" fill="none" xmlns="http://www.w3.org/2000/svg">
<path d="M33.2265 28.3986C33.7629 25.7704 35.1242 17.8287 35.1242 17.8287C38.0983 15.2575 38.876 10.8063 36.9375 8.05041C36.1029 6.86256 34.8375 6.09335 33.3743 5.88459C31.5714 5.62763 29.6266 6.22651 28.0095 7.52726C26.9579 3.19898 23.3462 0 19.0631 0C14.8126 0 11.2244 3.15133 10.1426 7.42959C8.50909 6.07966 6.52644 5.45478 4.69156 5.71664C3.22811 5.92497 1.96234 6.69419 1.12736 7.88245C0.111982 9.32754 -0.245884 11.3697 0.169942 13.3453C0.547127 15.1374 1.52937 16.5737 2.98335 17.8286C2.98335 17.8286 4.34943 25.7701 4.88642 28.3985C5.29867 30.4157 7.19278 32 9.08511 32H29.0277C30.92 32.0001 32.8148 30.4157 33.2265 28.3986ZM19.0631 2.72907C22.7011 2.72907 25.6752 5.89228 25.8141 9.83742C24.1254 9.18571 21.9656 9.61622 20.1929 11.1076C19.8485 11.3975 19.5377 11.7085 19.2593 12.0344C18.7155 11.5645 18.0342 11.0016 17.672 10.8028C15.2267 9.45637 13.5108 9.32125 12.3186 9.69C12.5253 5.81361 15.4708 2.72907 19.0631 2.72907ZM5.89656 16.8298C3.62052 15.5848 2.85041 13.8984 2.60527 12.734C2.35846 11.5608 2.55179 10.3385 3.10976 9.54426C3.65827 8.76373 4.44846 8.50383 5.01475 8.42321C6.21975 8.25078 7.55538 8.69512 8.679 9.64095C9.49607 10.3283 10.1075 11.1996 10.4475 12.1607C10.6 12.5915 10.9416 12.9088 11.3556 13.0041C11.7699 13.0994 12.1996 12.9593 12.4982 12.6322C13.3874 11.6582 15.6258 12.7326 16.5436 13.238C16.7291 13.347 17.3443 13.8562 17.9215 14.3605C17.6439 15.1864 17.5509 16.0296 17.6555 16.8299H14.6927L5.67291 11.8959C5.3025 11.6934 4.85239 11.8571 4.66687 12.2612C4.48147 12.6656 4.63117 13.1575 5.00132 13.3599L11.3446 16.8298H5.89656ZM30.7914 27.7841C30.6005 28.565 29.7659 29.2709 29.0277 29.2709H9.08511C8.34686 29.2709 7.51239 28.565 7.32137 27.7841L5.74929 19.559H32.3638L30.7914 27.7841ZM26.5792 16.8298L31.0664 14.1827C31.4308 13.9678 31.5664 13.471 31.3697 13.0733C31.173 12.6752 30.7177 12.5274 30.3537 12.742L23.424 16.8299H20.2283C19.8529 15.8184 20.4467 14.3397 21.7181 13.2695C23.0527 12.1467 24.7791 11.9356 25.5665 12.7994C25.8651 13.1265 26.295 13.2672 26.7088 13.1718C27.1226 13.0769 27.4646 12.76 27.6172 12.3292C27.9584 11.3669 28.5702 10.4951 29.3861 9.80835C30.5097 8.8628 31.8457 8.4186 33.0506 8.59102C33.6167 8.67179 34.4064 8.93183 34.9551 9.7125C36.0748 11.3044 35.3949 13.9379 33.439 15.5831C32.6231 16.2697 31.6968 16.7166 30.7603 16.8301H26.5792V16.8298Z" fill="#2C8A24"/>
<path d="M19.0631 7.30295C19.4771 7.30295 19.8128 6.93644 19.8128 6.48427V5.11897C19.8128 4.66694 19.4771 4.30029 19.0631 4.30029C18.6491 4.30029 18.3135 4.66694 18.3135 5.11897V6.48427C18.3135 6.93644 18.6491 7.30295 19.0631 7.30295Z" fill="#73C319"/>
<path d="M21.566 8.33104C21.684 8.4051 21.8127 8.44045 21.9396 8.44045C22.1988 8.44045 22.4512 8.29331 22.59 8.0302L23.214 6.84725C23.4207 6.45544 23.2973 5.95479 22.9386 5.72899C22.5797 5.50346 22.1216 5.63788 21.9147 6.02983L21.2907 7.21264C21.0839 7.60458 21.2073 8.10538 21.566 8.33104Z" fill="#73C319"/>
<path d="M15.5372 8.03081C15.6759 8.29378 15.9283 8.44091 16.1875 8.44091C16.3144 8.44091 16.4432 8.40556 16.5611 8.33137C16.92 8.10556 17.0432 7.60491 16.8363 7.21311L16.2119 6.03029C16.0053 5.63835 15.5467 5.50379 15.1881 5.72973C14.8292 5.95554 14.706 6.45619 14.9129 6.84799L15.5372 8.03081Z" fill="#73C319"/>
</svg>
