<svg width="40" height="40" viewBox="0 0 40 40" fill="none" xmlns="http://www.w3.org/2000/svg">
<rect width="40" height="40" rx="20" fill="#73C319"/>
<path d="M26.5433 18.5395H21.4558V13.4568C21.4558 12.6523 20.8066 12 20.0019 12C19.1973 12 18.5485 12.6523 18.5485 13.4572V18.543H13.4584C12.6538 18.543 11.9996 19.1953 12 20.0002C11.9996 20.4023 12.1621 20.7709 12.4254 21.0341C12.689 21.2981 13.0528 21.4647 13.4545 21.4647H18.5485V26.5435C18.5485 26.946 18.7081 27.3104 18.9717 27.5732C19.2354 27.8368 19.598 28 20.0005 28C20.8048 28 21.4558 27.3477 21.4558 26.5435V21.4644H26.5433C27.348 21.4644 28.0004 20.8065 28 20.0019C27.9996 19.1978 27.3473 18.5395 26.5433 18.5395Z" fill="white"/>
</svg>
