<svg width="38" height="38" viewBox="0 0 38 38" fill="none" xmlns="http://www.w3.org/2000/svg">
<path fill-rule="evenodd" clip-rule="evenodd" d="M25.9091 13.8183C25.9091 17.634 22.8157 20.7274 19 20.7274C15.1842 20.7274 12.0909 17.634 12.0909 13.8183C12.0909 10.0025 15.1842 6.90918 19 6.90918C22.8157 6.90918 25.9091 10.0025 25.9091 13.8183ZM22.4545 13.8183C22.4545 15.7262 20.9079 17.2728 19 17.2728C17.092 17.2728 15.5454 15.7262 15.5454 13.8183C15.5454 11.9104 17.092 10.3637 19 10.3637C20.9079 10.3637 22.4545 11.9104 22.4545 13.8183Z" fill="#73C319"/>
<path fill-rule="evenodd" clip-rule="evenodd" d="M19 0C8.50659 0 0 8.50659 0 19C0 29.4934 8.50659 38 19 38C29.4934 38 38 29.4934 38 19C38 8.50659 29.4934 0 19 0ZM3.45455 19C3.45455 22.6103 4.68531 25.9333 6.75015 28.572C9.5906 24.8536 14.0708 22.4545 19.1114 22.4545C24.0865 22.4545 28.5159 24.7917 31.3612 28.428C33.3588 25.8129 34.5455 22.5451 34.5455 19C34.5455 10.4145 27.5856 3.45455 19 3.45455C10.4145 3.45455 3.45455 10.4145 3.45455 19ZM19 34.5455C15.286 34.5455 11.8761 33.2429 9.20234 31.0698C11.3888 27.9493 15.0118 25.9091 19.1114 25.9091C23.16 25.9091 26.7439 27.8991 28.9384 30.9543C26.244 33.1966 22.7794 34.5455 19 34.5455Z" fill="#73C319"/>
</svg>
