<svg width="56" height="56" viewBox="0 0 56 56" fill="none" xmlns="http://www.w3.org/2000/svg">
<path d="M34.7979 10.1031C32.6992 10.1031 30.9917 11.7436 30.9917 13.7602C30.9918 15.7767 32.6992 17.4172 34.7979 17.4172C36.8966 17.4172 38.6042 15.7768 38.6042 13.7602C38.6042 11.7437 36.8967 10.1031 34.7979 10.1031ZM34.7979 15.7028C33.6792 15.7028 32.7689 14.8314 32.7689 13.7602C32.7691 12.689 33.6792 11.8175 34.7979 11.8175C35.9167 11.8175 36.827 12.689 36.827 13.7602C36.827 14.8314 35.9168 15.7028 34.7979 15.7028Z" fill="white"/>
<path d="M42.0197 2.22502L40.2638 0.540205C39.9008 0.191844 39.4184 0 38.9057 0C38.3929 0 37.9105 0.191844 37.5473 0.540205L35.7916 2.22502C35.4274 2.57459 35.2268 3.03976 35.2268 3.53479C35.2268 4.02961 35.4274 4.49467 35.7917 4.84435L37.5475 6.52949C37.9107 6.87764 38.3929 7.06937 38.9058 7.06937C39.4186 7.06937 39.9009 6.87764 40.264 6.52927L42.0198 4.84435C42.3839 4.49467 42.5845 4.02961 42.5845 3.5349C42.5845 3.03998 42.3839 2.57503 42.0197 2.22502ZM40.766 3.62919L39.0104 5.31389C38.9749 5.34791 38.9339 5.35502 38.9057 5.35502C38.8773 5.35502 38.8363 5.3478 38.8008 5.314L37.0453 3.62919C37.0112 3.59648 37.004 3.55984 37.004 3.53479C37.004 3.50964 37.0113 3.473 37.0452 3.44029L38.8006 1.75569C38.8361 1.72157 38.8773 1.71446 38.9055 1.71446C38.9338 1.71446 38.9748 1.72168 39.0104 1.75569L40.7659 3.44018C40.8 3.47289 40.8072 3.50964 40.8072 3.53479C40.8071 3.55973 40.7998 3.59659 40.766 3.62919Z" fill="white"/>
<path d="M11.5253 14.9455L10.1064 13.5842C9.78082 13.2717 9.34834 13.0997 8.88852 13.0997C8.4287 13.0997 7.9961 13.2718 7.67054 13.5841L6.25152 14.9455C5.9246 15.2592 5.74464 15.6766 5.74464 16.1208C5.74464 16.5649 5.92471 16.9822 6.2514 17.2955L7.67066 18.6575C7.99621 18.9697 8.4287 19.1417 8.88852 19.1417C9.34834 19.1417 9.78094 18.9695 10.1063 18.6573L11.5251 17.2957C11.852 16.9822 12.0319 16.5648 12.0321 16.1207C12.0322 15.6767 11.8522 15.2593 11.5253 14.9455ZM8.88829 17.4081L7.54694 16.1206L8.88841 14.8335L10.2298 16.1206L8.88829 17.4081Z" fill="white"/>
<path d="M48.4624 17.514L47.0434 16.1526C46.718 15.8401 46.2854 15.668 45.8254 15.668C45.3657 15.668 44.933 15.8402 44.6074 16.1525L43.1885 17.514C42.8615 17.8276 42.6816 18.2449 42.6816 18.6892C42.6817 19.1333 42.8617 19.5505 43.1884 19.8639L44.6077 21.2259C44.9334 21.5383 45.3659 21.71 45.8255 21.71C46.2854 21.71 46.7179 21.5379 47.0433 21.2256L48.4621 19.8641C48.789 19.5505 48.969 19.1333 48.9691 18.6891C48.9692 18.245 48.7893 17.8278 48.4624 17.514ZM45.8256 19.9765L44.4842 18.6892L45.8256 17.402L47.1669 18.6892L45.8256 19.9765Z" fill="white"/>
<path d="M18.5633 28.7111L18.441 28.6498C18.0053 28.4315 17.469 28.5952 17.2427 29.0152C17.0164 29.4353 17.1861 29.9527 17.6215 30.171L17.7438 30.2323C17.8747 30.2979 18.0149 30.3291 18.1528 30.3291C18.4739 30.3291 18.7838 30.1606 18.9421 29.8668C19.1685 29.4468 18.9988 28.9294 18.5633 28.7111Z" fill="white"/>
<path d="M27.6251 9.54259C27.6251 7.7519 26.9003 6.07025 25.5845 4.8074C24.7 3.95832 23.2605 3.95832 22.3757 4.8074L18.9937 8.05301C18.6458 8.38682 18.6445 8.92954 18.9905 9.26511C19.3366 9.60067 19.8993 9.60188 20.2473 9.26806L23.6291 6.02257C23.8225 5.83685 24.1373 5.83685 24.3308 6.02257C24.4903 6.17569 24.6369 6.33789 24.7727 6.50644C24.2269 6.64688 23.8562 7.26605 24.0933 7.77771C24.2244 8.06067 24.5124 8.25711 24.8327 8.28204C25.1325 8.30534 25.381 8.17967 25.5879 7.98104C25.7578 8.47815 25.8476 9.00337 25.8476 9.54238C25.8476 10.8734 25.309 12.1234 24.3309 13.0621C22.9179 14.4181 20.8872 14.8271 19.1002 14.2918C19.4525 13.864 19.2741 13.3086 18.8602 12.9958C18.3626 12.6197 17.6019 12.8581 17.4455 13.4555C17.2851 13.3343 17.1297 13.204 16.9817 13.0622C16.8896 12.9737 16.8388 12.8562 16.8388 12.7317C16.8389 12.6071 16.8896 12.4899 16.9817 12.4014L17.759 11.6557C18.1069 11.3218 18.1083 10.7791 17.7621 10.4434C17.4159 10.1078 16.8534 10.1066 16.5054 10.4403L15.7282 11.1861C15.2983 11.5985 15.0614 12.1474 15.0613 12.7313C15.0612 13.3155 15.2981 13.8645 15.7282 14.2771C17.0865 15.5812 18.8702 16.233 20.6546 16.2333C20.209 16.2333 19.7649 16.2334 20.6563 16.2333C21.5471 16.2332 21.1035 16.2332 20.6581 16.2333C22.4421 16.2327 24.2263 15.5809 25.5843 14.2777C26.9004 13.0149 27.6252 11.3333 27.6251 9.54259Z" fill="white"/>
<path d="M21.7676 11.8387L21.6698 11.7449C21.3217 11.4113 20.7591 11.413 20.4132 11.7485C20.0672 12.0843 20.0689 12.6269 20.4168 12.9607L20.5146 13.0545C20.688 13.2206 20.9145 13.3036 21.141 13.3036C21.3693 13.3036 21.5976 13.2193 21.7712 13.0508C22.1173 12.715 22.1156 12.1724 21.7676 11.8387Z" fill="white"/>
<path d="M24.2123 9.68201L24.1145 9.58806C23.7669 9.25381 23.2041 9.25479 22.8579 9.59025C22.5115 9.9257 22.5125 10.4683 22.8601 10.8023L22.9579 10.8963C23.1313 11.063 23.3582 11.1462 23.5851 11.1462C23.813 11.1462 24.041 11.0622 24.2147 10.8941C24.561 10.5588 24.5598 10.016 24.2123 9.68201Z" fill="white"/>
<path d="M55.3767 31.7784C56.4412 29.9473 56.1266 27.6375 54.5525 26.1268C53.6218 25.2339 52.385 24.7422 51.0695 24.7422C50.2219 24.7422 49.4017 24.9473 48.6715 25.3387C47.9319 25.0903 47.22 24.9648 46.5496 24.9648C46.3135 24.9648 46.0856 24.9818 45.866 25.0134C45.5696 23.9516 44.902 23.001 43.9549 22.3445C43.5562 22.0682 43.001 22.1559 42.7147 22.5404C42.4282 22.9248 42.5192 23.4604 42.9177 23.7367C43.592 24.2042 44.048 24.9014 44.2036 25.671C44.0964 25.7506 43.9939 25.8358 43.8976 25.9282C43.362 26.4423 43.0389 27.1209 42.9337 27.9054C42.4151 27.6851 41.8224 27.5713 41.1738 27.5713C40.971 27.5713 40.764 27.5824 40.5529 27.6043C40.7009 26.264 40.3492 25.1062 39.5261 24.3163C39.3497 24.1471 39.1552 23.9983 38.9448 23.8703C39.5076 23.4205 40.2302 23.149 41.0185 23.149C41.5093 23.149 41.9072 22.7653 41.9072 22.2918C41.9072 21.8183 41.5093 21.4346 41.0185 21.4346C39.4044 21.4346 37.9658 22.1699 37.0465 23.3101C36.9398 23.3034 36.8319 23.2992 36.7219 23.2992C36.5191 23.2992 36.3122 23.3103 36.1013 23.3322C36.2494 21.9917 35.8976 20.834 35.0744 20.0442C34.3811 19.379 33.4117 19.0274 32.2707 19.0274C31.5492 19.0274 30.7816 19.1644 29.9836 19.4351C29.202 19.0105 28.3222 18.7881 27.4124 18.7881C26.0162 18.7881 24.7032 19.3101 23.7156 20.2578C23.0645 20.8826 22.6175 21.6365 22.3799 22.4386L18.1937 18.4216C17.7328 17.9792 17.1202 17.7355 16.4689 17.7355C15.8174 17.7355 15.205 17.9792 14.7441 18.4214C13.4285 19.6838 12.6489 21.3247 12.5092 23.0907C11.9463 22.7829 11.2745 22.6228 10.5254 22.6228C9.84376 22.6228 9.11985 22.7519 8.36815 23.0072C7.62643 22.6048 6.79309 22.3941 5.93141 22.3941C4.59652 22.3941 3.34192 22.8978 2.39847 23.8125C0.804251 25.3581 0.487879 27.723 1.57103 29.5941C0.883514 31.5039 1.10395 33.2362 2.18778 34.2872C2.29948 34.3955 2.41934 34.4945 2.54554 34.5854L1.77264 35.3269C1.35864 35.7242 1.13072 36.2528 1.13072 36.8152C1.13072 36.863 1.13264 36.9102 1.13593 36.9575C0.917532 37.0789 0.718638 37.2345 0.550246 37.4227C0.11685 37.9065 -0.074107 38.546 0.0261342 39.1767C0.625767 42.9579 2.62254 46.4209 5.6486 48.9271C7.47494 50.4397 9.60801 51.5424 11.8919 52.1845C11.7776 52.4315 11.7126 52.7043 11.7126 52.9918V54.0107C11.7126 55.1076 12.6377 56 13.7746 56H41.5849C42.722 56 43.6469 55.1075 43.6469 54.0107V52.9918C43.6469 52.7043 43.582 52.4316 43.4678 52.1845C44.5412 51.8833 45.5836 51.4805 46.5741 50.9796C47.0089 50.7599 47.1765 50.2418 46.9486 49.8224C46.7208 49.4032 46.1836 49.2413 45.7489 49.4613C44.1683 50.2604 42.4406 50.7817 40.67 51.0025H14.676C11.7767 50.6401 9.03582 49.4731 6.80613 47.6264C6.22544 47.1454 5.68738 46.6248 5.19468 46.0708H11.3806C11.8704 46.0708 12.2674 45.688 12.2674 45.2154C12.2674 44.7429 11.8704 44.36 11.3806 44.36H3.88825C3.41857 43.6393 3.01625 42.8802 2.68604 42.0909H14.4173C14.9072 42.0909 15.3042 41.7079 15.3042 41.2356C15.3042 40.7631 14.9072 40.3802 14.4173 40.3802H2.09797C1.96712 39.8997 1.86121 39.4118 1.78285 38.9173C1.76153 38.7831 1.80247 38.6469 1.89534 38.5432C1.98923 38.4383 2.12621 38.3782 2.27113 38.3782H53.0884C53.2335 38.3782 53.3704 38.4383 53.4642 38.5432C53.557 38.6468 53.5979 38.7832 53.5767 38.9176C53.0734 42.0904 51.4456 45.0489 48.9927 47.248C48.6332 47.5702 48.6127 48.1126 48.9468 48.4594C49.2808 48.8058 49.8432 48.8259 50.2027 48.5036C52.9479 46.0425 54.7702 42.7302 55.3335 39.177C55.4337 38.5461 55.2427 37.9069 54.8095 37.423C54.5991 37.188 54.3418 37.0028 54.0572 36.8736C54.3154 36.7344 54.5506 36.5644 54.7594 36.364C55.8308 35.3359 56.0514 33.644 55.3767 31.7784ZM13.4897 52.992C13.4897 52.8403 13.6174 52.7171 13.7745 52.7171H41.5848C41.7419 52.7171 41.8696 52.8403 41.8696 52.992V54.0109C41.8696 54.1626 41.7419 54.2858 41.5848 54.2858H13.7745C13.6175 54.2858 13.4897 54.1626 13.4897 54.0109V52.992ZM22.8188 26.387C22.6717 26.8076 22.5677 27.219 22.5065 27.6168C22.2626 27.6267 22.0254 27.6724 21.8019 27.7527C21.7009 27.4157 21.572 27.0865 21.4183 26.768C21.9099 26.7229 22.3826 26.5931 22.8188 26.387ZM19.0872 21.6972L22.2513 24.7335C21.888 24.9543 21.4662 25.0724 21.0253 25.0724C19.8407 25.0724 18.7306 24.0201 18.7306 22.8749C18.7309 22.4513 18.8551 22.0459 19.0872 21.6972ZM15.9977 19.6366C16.1233 19.5161 16.2906 19.4497 16.4689 19.4497C16.6471 19.4497 16.8143 19.5161 16.9401 19.6367L17.8119 20.4733C17.2561 21.1571 16.9536 21.9933 16.9536 22.8748C16.9536 23.057 16.9668 23.2371 16.9924 23.4145C16.2591 23.5046 15.6157 23.9337 15.2712 24.5804L14.6611 25.7254C14.3996 25.0774 14.2617 24.3818 14.2617 23.6652C14.2615 22.1415 14.878 20.711 15.9977 19.6366ZM2.94039 36.664V36.6639C2.95819 36.6238 2.98484 36.5819 3.026 36.5424L5.22847 34.429C5.33302 34.3288 5.45537 34.3138 5.51922 34.3138C5.58306 34.3138 5.70575 34.3288 5.8103 34.4291L8.01277 36.5425C8.05393 36.5819 8.08069 36.6239 8.09838 36.664H2.94039ZM7.55239 33.6824L7.06365 33.2135C6.65078 32.8174 6.10229 32.5994 5.51922 32.5994C4.93614 32.5994 4.38765 32.8175 3.975 33.2137L3.83598 33.347C3.68993 33.2752 3.5593 33.1866 3.44772 33.0782C2.8059 32.4557 2.78039 31.2399 3.37945 29.8259C3.49296 29.5578 3.45871 29.2525 3.28794 29.0143C2.3979 27.7717 2.5536 26.0924 3.65818 25.0212C4.26552 24.4325 5.07278 24.1081 5.93118 24.1081C6.59102 24.1081 7.22456 24.2998 7.76308 24.6627C8.01141 24.8301 8.33107 24.8637 8.61104 24.7521C9.29311 24.4804 9.955 24.3368 10.5252 24.3368C11.1443 24.3368 11.625 24.4983 11.9536 24.8172C12.5146 25.3612 12.6072 26.3673 12.2077 27.5779C12.1068 27.8837 12.1915 28.2183 12.427 28.4448C12.602 28.613 12.8385 28.7003 13.0785 28.6943L11.7845 31.1228C11.6032 31.1298 11.4254 31.1485 11.2494 31.1734L6.82031 26.8788C6.47423 26.5432 5.91167 26.5419 5.56355 26.8756C5.21554 27.2095 5.21418 27.7521 5.56026 28.0877L9.40107 31.8118C8.62329 32.2633 7.98091 32.9096 7.55239 33.6824ZM14.3466 34.6299C13.9166 35.0424 13.6797 35.5914 13.6797 36.1755C13.6797 36.342 13.7008 36.5054 13.7385 36.6638H9.90068C9.86349 36.1586 9.64282 35.6884 9.26635 35.327L8.90281 34.9781C9.32736 33.7343 10.5491 32.8332 11.9869 32.8332C13.1345 32.8332 14.1422 33.4085 14.719 34.2724L14.3466 34.6299ZM13.6406 31.3903L16.8517 25.3641C16.9728 25.1371 17.2692 25.0457 17.5044 25.1638C17.7092 25.2665 17.9032 25.3814 18.0875 25.506C17.6196 25.7919 17.4542 26.4768 17.8189 26.8975C18.25 27.3944 19.0444 27.2433 19.3209 26.6827C19.8223 27.3567 20.1422 28.141 20.2568 28.9579L17.2818 31.8128C17.0625 31.4554 16.5408 31.2448 16.1278 31.3707C15.5826 31.537 15.3393 32.1782 15.6453 32.6458C15.0974 32.0847 14.4119 31.6498 13.6406 31.3903ZM20.1399 36.664C21.0521 36.247 20.5834 34.9382 19.6595 34.9405C18.6086 34.943 18.539 36.2801 19.3787 36.6639H17.7101C17.6616 36.6063 17.6069 36.5529 17.5511 36.5018C17.203 36.1682 16.6403 36.1699 16.2945 36.5054C16.1755 36.6209 16.2052 36.6346 16.0668 36.6638C16.0029 36.6773 15.8455 36.6844 15.7827 36.6638C15.4488 36.5546 15.3667 36.0693 15.6004 35.845L22.2476 29.4662C22.4384 29.283 22.7584 29.2828 22.9493 29.4662C23.1088 29.6193 23.2556 29.7814 23.3912 29.9499C23.025 30.0441 22.6913 30.397 22.6421 30.76C22.5797 31.2205 22.9223 31.6556 23.4004 31.7194C23.2104 32.2747 23.0891 32.8537 23.0404 33.4473C22.7317 32.6027 21.3261 32.5499 21.2225 33.5535C21.1255 34.4903 22.5805 35.0224 23.0145 34.0808C23.019 34.9777 23.188 35.8493 23.5074 36.6639H20.1399V36.664ZM25.4538 36.6639C25.0216 35.8646 24.7909 34.9719 24.7909 34.044C24.7909 32.5206 25.4075 31.0897 26.527 30.0153C26.6526 29.8948 26.8199 29.8285 26.9983 29.8285C27.1765 29.8285 27.3438 29.8948 27.4695 30.0154L28.3414 30.8522C27.7855 31.5359 27.4831 32.3722 27.4831 33.2536C27.4831 34.2992 27.9074 35.2822 28.6774 36.0212C28.9434 36.2764 29.2402 36.491 29.5591 36.6638H25.4538V36.6639ZM31.5548 35.4511C30.9409 35.4511 30.3643 35.2219 29.9308 34.806C29.4984 34.391 29.2603 33.8396 29.2603 33.2535C29.2603 32.83 29.3846 32.4245 29.6166 32.0756L32.7807 35.112C32.4175 35.3329 31.9958 35.4511 31.5548 35.4511ZM33.5508 36.6639C33.7274 36.5682 33.8969 36.4595 34.0582 36.3381L34.3979 36.6639H33.5508ZM32.0504 31.9931C32.3768 30.9392 33.3964 30.1681 34.6008 30.1681C35.7337 30.1681 36.7027 30.8504 37.0858 31.8082C37.0169 31.8614 36.9502 31.9176 36.8868 31.9784L34.4611 34.3061L32.0504 31.9931ZM41.7201 36.6167L41.6709 36.6639H36.6906C36.5711 36.4068 36.4031 36.17 36.1894 35.9648L35.7208 35.5153L38.14 33.1937C38.3966 32.9474 38.8268 32.9472 39.0837 33.1934L41.7201 35.7236C41.9738 35.967 41.9738 36.3732 41.7201 36.6167ZM42.4368 33.9931L40.3372 31.9782C39.9171 31.5752 39.3707 31.3394 38.7844 31.3003C38.1753 29.6441 36.5309 28.4538 34.601 28.4538C34.2639 28.4538 33.9359 28.4909 33.6203 28.5594L28.3133 23.4667C27.9653 23.1328 27.4028 23.1342 27.0567 23.4696C26.7106 23.8053 26.7119 24.348 27.0598 24.6817L31.906 29.3323C31.4098 29.698 30.9968 30.1625 30.6973 30.6943L30.2237 30.2398C30.2234 30.2395 30.2232 30.2393 30.223 30.2391L28.723 28.7999C28.2621 28.3575 27.6495 28.1141 26.9983 28.1141C26.3469 28.1141 25.7344 28.3576 25.2735 28.7999C25.1661 28.9029 25.0635 29.0092 24.9633 29.1171C24.7406 28.8158 24.4912 28.5295 24.2143 28.2625C24.2461 27.7371 24.3951 27.1443 24.6651 26.5138C24.7807 26.2438 24.7458 25.9355 24.5724 25.6961C23.6214 24.3821 23.7882 22.6059 24.969 21.4729C25.6213 20.8467 26.489 20.5021 27.4123 20.5021C28.1221 20.5021 28.8033 20.7061 29.3825 21.092C29.6296 21.2567 29.9461 21.29 30.2239 21.1803C30.9524 20.8931 31.6601 20.7414 32.2708 20.7414C32.9413 20.7414 33.4629 20.9155 33.821 21.2593C34.4246 21.8384 34.5262 22.9041 34.0997 24.1833C33.9978 24.4888 34.0815 24.8236 34.3163 25.0509C34.5512 25.2781 34.8979 25.3599 35.2151 25.2626C35.7541 25.0972 36.2611 25.0133 36.722 25.0133C37.3928 25.0133 37.9147 25.1875 38.2728 25.5312C38.8763 26.1104 38.9779 27.1762 38.5515 28.4554C38.4497 28.761 38.5333 29.0958 38.7682 29.323C39.0029 29.5502 39.3499 29.6323 39.667 29.5346C40.2061 29.3692 40.7131 29.2852 41.174 29.2852C41.8447 29.2852 42.3665 29.4596 42.7248 29.8035C43.082 30.1463 43.2632 30.645 43.2632 31.2859C43.2631 32.1096 42.966 33.0504 42.4368 33.9931ZM48.7204 36.6639H44.9248C44.8403 36.4511 44.7937 36.2205 44.7937 35.9796C44.7937 34.9083 45.7039 34.0368 46.8227 34.0368C47.9414 34.0368 48.8516 34.9083 48.8516 35.9796C48.8514 36.2204 48.8048 36.451 48.7204 36.6639ZM53.6607 31.1946C53.4873 31.4341 53.4524 31.7423 53.568 32.0122C54.1524 33.378 54.1293 34.5504 53.5057 35.1485C53.1845 35.4566 52.714 35.6129 52.107 35.6129C51.6846 35.6129 51.2193 35.5358 50.724 35.3837C50.6738 35.3682 50.6228 35.3588 50.5715 35.3523C50.3811 34.2981 49.7201 33.3973 48.8039 32.8582L51.4409 30.3276C51.7888 29.9938 51.7903 29.4511 51.4441 29.1155C51.0978 28.7799 50.5352 28.7785 50.1874 29.1125L46.8421 32.3228C46.8354 32.3228 46.8289 32.3224 46.8223 32.3224C46.0841 32.3224 45.3949 32.5259 44.8108 32.8769C44.9609 32.3324 45.0402 31.7979 45.0401 31.2859C45.0401 30.9283 44.9582 29.957 44.907 29.8031C44.5175 28.6351 44.6065 27.6657 45.1509 27.1434C45.472 26.8352 45.9425 26.6789 46.5494 26.6789C47.1094 26.6789 47.7599 26.8187 48.4303 27.0829C48.7081 27.1926 49.0246 27.1592 49.2717 26.9946C49.7999 26.6426 50.4216 26.4565 51.0693 26.4565C51.9117 26.4565 52.7034 26.771 53.2987 27.3421C54.376 28.3758 54.5282 29.996 53.6607 31.1946Z" fill="white"/>
<path d="M47.9981 45.7111C47.6791 45.3526 47.1193 45.3116 46.7477 45.6193C46.1845 46.0859 45.5727 46.5053 44.9295 46.8659C44.5062 47.1032 44.3623 47.6269 44.6083 48.0352C44.7729 48.3084 45.0703 48.461 45.3759 48.461C45.5271 48.461 45.6804 48.4236 45.8207 48.3449C46.5572 47.932 47.2579 47.4516 47.9031 46.9172C48.2746 46.6095 48.3172 46.0695 47.9981 45.7111Z" fill="white"/>
<path d="M51.6195 39.3515C51.1488 39.2225 50.658 39.4856 50.5237 39.9398C50.099 41.3775 49.4004 42.7086 48.4469 43.8956C48.147 44.2693 48.2179 44.8064 48.6051 45.0957C48.7666 45.2165 48.9578 45.2748 49.1475 45.2748C49.4123 45.2749 49.6746 45.1608 49.8492 44.9434C50.9417 43.5827 51.7424 42.0572 52.2295 40.4088C52.3636 39.9544 52.0907 39.481 51.6195 39.3515Z" fill="white"/>
</svg>
