<svg width="56" height="56" viewBox="0 0 56 56" fill="none" xmlns="http://www.w3.org/2000/svg">
<path d="M25.0562 19.4606V15.1954C25.0562 14.7069 24.6171 14.3112 24.0754 14.3112H20.4576L19.4135 6.4655H21.2401C21.7819 6.4655 22.2209 6.06956 22.2209 5.58131C22.2209 5.09284 21.7818 4.69712 21.2401 4.69712H19.1781L18.6566 0.77897C18.5975 0.334469 18.1794 0 17.6829 0H13.7461C13.2496 0 12.8315 0.334469 12.7724 0.77897L12.2509 4.69712H7.17411C3.21831 4.69712 0 7.59852 0 11.1648V11.4192C0 14.6187 2.54002 17.305 6.03979 17.8067C6.09183 17.8143 6.14376 17.8178 6.19495 17.8178C6.25537 17.8178 6.31481 17.8126 6.37293 17.8028V19.4604C4.77784 19.931 3.62193 21.2846 3.62193 22.878V52.4042C3.62193 54.3868 5.41124 56 7.61048 56H23.8184C26.0176 56 27.8069 54.3868 27.8069 52.4042V22.8781C27.8067 21.285 26.6511 19.9313 25.0562 19.4606ZM19.5874 16.0796H23.0945V19.2824H8.33426V16.0796H11.8411H19.5874ZM14.6161 1.76838H16.8128L17.2026 4.69701H14.2263L14.6161 1.76838ZM6.3728 15.1954V16.065C6.36431 16.0636 6.35618 16.0615 6.34757 16.0603C3.80597 15.6959 1.96134 13.7442 1.96134 11.4194V11.165C1.96134 8.57381 4.29973 6.46572 7.17398 6.46572H12.0153L11.2119 12.5002C11.1474 12.9849 11.531 13.4253 12.0688 13.4834C12.6054 13.5419 13.0948 13.1959 13.1594 12.7109L13.9907 6.46572H17.4376L18.4817 14.3114H11.8408H7.35353C6.81173 14.3112 6.3728 14.7069 6.3728 15.1954ZM25.8452 52.4043C25.8452 53.412 24.9358 54.2316 23.8183 54.2316H7.61036C6.49267 54.2316 5.58339 53.4119 5.58339 52.4043V22.8781C5.58339 22.0424 6.20988 21.3376 7.06104 21.1209C7.15336 21.1468 7.25175 21.1609 7.35353 21.1609H24.0754C24.1773 21.1609 24.2755 21.1469 24.3678 21.121C25.219 21.3377 25.8452 22.0425 25.8452 22.8781V52.4043Z" fill="white"/>
<path d="M23.5603 36.757H7.8683C7.3265 36.757 6.88757 37.1527 6.88757 37.6411V52.2026C6.88757 52.6911 7.3265 53.0868 7.8683 53.0868H23.5603C24.1022 53.0868 24.5411 52.6911 24.5411 52.2026V43.7041C24.5411 43.2158 24.1022 42.82 23.5603 42.82C23.0185 42.82 22.5796 43.2159 22.5796 43.7041V51.3184H8.84903V38.5253H22.5796V40.8752C22.5796 41.3636 23.0185 41.7593 23.5603 41.7593C24.1022 41.7593 24.5411 41.3636 24.5411 40.8752V37.6411C24.5411 37.1528 24.1022 36.757 23.5603 36.757Z" fill="white"/>
<path d="M53.2492 19.4606V15.1954C53.2492 14.7069 52.8102 14.3112 52.2685 14.3112H48.6507L47.6065 6.4655H49.4332C49.975 6.4655 50.4139 6.06956 50.4139 5.58131C50.4139 5.09284 49.975 4.69712 49.4332 4.69712H47.3712L46.8496 0.77897C46.7907 0.334469 46.3726 0 45.876 0H41.9393C41.4427 0 41.0247 0.334469 40.9656 0.77897L40.4441 4.69712H35.3674C31.4116 4.69712 28.1933 7.59852 28.1933 11.1648V11.4192C28.1933 14.6187 30.7333 17.305 34.2331 17.8067C34.2851 17.8143 34.3371 17.8178 34.3881 17.8178C34.4485 17.8178 34.5082 17.8126 34.5661 17.8028V19.4604C32.971 19.931 31.8151 21.2846 31.8151 22.878V52.4042C31.8151 54.3868 33.6044 56 35.8037 56H52.0114C54.2107 56 56 54.3868 56 52.4042V22.8781C55.9999 21.285 54.8442 19.9313 53.2492 19.4606ZM47.7805 16.0796H51.2875V19.2824H36.5273V16.0796H40.0341H47.7805ZM42.8093 1.76838H45.0057L45.3955 4.69701H42.4193L42.8093 1.76838ZM34.566 15.1955V16.0651C34.5575 16.0636 34.5494 16.0615 34.5407 16.0603C31.9991 15.6959 30.1545 13.7442 30.1545 11.4194V11.165C30.1545 8.57381 32.4929 6.46572 35.3672 6.46572H40.2085L39.4041 12.509C39.3396 12.9938 39.7233 13.4341 40.261 13.4923C40.7971 13.5513 41.287 13.2048 41.3516 12.7198L42.1841 6.46583H45.631L46.6752 14.3115H40.0342H35.5467C35.0049 14.3113 34.566 14.707 34.566 15.1955ZM52.0113 54.2317H35.8033C34.6856 54.2317 33.7763 53.412 33.7763 52.4044V22.8781C33.7763 22.0424 34.4028 21.3376 35.254 21.1209C35.3464 21.1468 35.4447 21.1609 35.5465 21.1609H52.2684C52.3703 21.1609 52.4684 21.1469 52.5608 21.121C53.4119 21.3377 54.0382 22.0425 54.0382 22.8781V52.4043H54.0383C54.0384 53.412 53.129 54.2317 52.0113 54.2317Z" fill="white"/>
<path d="M51.7535 22.3672H36.0615C35.5198 22.3672 35.0807 22.763 35.0807 23.2514V52.2026C35.0807 52.6911 35.5199 53.0868 36.0615 53.0868H51.7535C52.2953 53.0868 52.7343 52.6911 52.7343 52.2026V31.1501C52.7343 30.6616 52.2952 30.2659 51.7535 30.2659C51.2118 30.2659 50.7728 30.6616 50.7728 31.1501V51.3183H37.0422V24.1357H50.7728V28.0847C50.7728 28.5732 51.212 28.9689 51.7535 28.9689C52.2953 28.9689 52.7343 28.5732 52.7343 28.0847V23.2515C52.7343 22.7631 52.2952 22.3672 51.7535 22.3672Z" fill="white"/>
</svg>
