<svg width="38" height="38" viewBox="0 0 38 38" fill="none" xmlns="http://www.w3.org/2000/svg">
<path d="M37.5211 35.2916L26.6183 24.3721C28.7677 21.7922 30.0605 18.4953 30.0605 14.8945C30.0605 6.67952 23.3241 0 15.038 0C6.75192 0 0 6.68731 0 14.9023C0 23.1172 6.73635 29.7967 15.0224 29.7967C18.5425 29.7967 21.7822 28.5887 24.3521 26.57L35.2938 37.5207C35.9324 38.1598 36.8825 38.1598 37.5211 37.5207C38.1596 36.8816 38.1596 35.9307 37.5211 35.2916ZM3.19295 14.9023C3.19295 8.44877 8.50415 3.20336 15.0224 3.20336C21.5407 3.20336 26.8519 8.44877 26.8519 14.9023C26.8519 21.3558 21.5407 26.6012 15.0224 26.6012C8.50415 26.6012 3.19295 21.348 3.19295 14.9023Z" fill="#73C319"/>
</svg>