<svg width="56" height="56" viewBox="0 0 56 56" fill="none" xmlns="http://www.w3.org/2000/svg">
<path d="M49.0602 32.4758C48.7583 32.0753 48.233 32.0335 47.8868 32.3821L47.0135 33.2606C46.6671 33.6092 46.6359 34.2112 46.9325 34.6161C47.3511 35.1878 47.9484 34.8683 48.1059 34.7098L48.9791 33.8313C49.3255 33.4827 49.3617 32.8758 49.0602 32.4758Z" fill="white"/>
<path d="M55.9126 23.2218C55.5885 21.3057 54.3945 19.7213 52.7962 19.0871L31.6015 10.6784L28.3733 4.21896C27.0732 1.61662 24.6495 0 22.0484 0C19.4474 0 17.0238 1.6165 15.7232 4.21959L5.67853 24.3694C5.62319 24.4819 4.32523 27.1616 4.32523 30.4067V32.9365L0.772406 40.0458C0.266875 40.9376 0 41.974 0 43.045C0 46.0682 2.12877 48.5276 4.74567 48.5276C4.74797 48.5276 4.7507 48.5276 4.75333 48.5276H19.4124C19.6218 48.6279 19.832 48.707 20.037 48.7674L20.4602 51.2723C20.5863 52.3284 20.9741 53.3126 21.5826 54.1201C22.5197 55.3634 23.8387 56.0001 25.1648 56C26.2702 55.9999 27.3807 55.5572 28.278 54.6547C28.2787 54.654 28.2792 54.6535 28.2798 54.6529C28.2812 54.6515 28.2824 54.6502 28.2837 54.649L34.3292 48.5676L39.3438 48.5276C41.0338 48.5276 42.6086 47.4772 43.4537 45.7862C44.2986 44.0955 44.2986 41.9946 43.4537 40.3038L43.1495 39.6952L46.1231 36.7039C46.4695 36.3554 46.5058 35.7486 46.2042 35.3483C45.9023 34.948 45.377 34.9061 45.0308 35.2547L42.3021 37.9996L37.8456 29.0823C37.8645 28.8998 38.2301 24.2021 36.3416 20.1627L32.8682 13.2126L52.256 20.9044C53.2941 21.3163 54.0696 22.3452 54.2801 23.59C54.4903 24.8345 54.1067 26.125 53.2791 26.9577L49.9166 30.34C49.5702 30.6885 49.5339 31.2953 49.8355 31.6956C50 31.9138 50.2309 32.0255 50.4631 32.0255C50.6568 32.0255 50.8515 31.9479 51.0089 31.7892L54.3714 28.4069C55.646 27.125 56.2366 25.1381 55.9126 23.2218ZM4.75333 46.6061C4.75092 46.6058 4.74797 46.6058 4.74567 46.6059C3.04609 46.6059 1.66338 45.0086 1.66338 43.045C1.66338 42.3424 1.8398 41.6633 2.17372 41.0814C2.18313 41.0649 4.48481 36.4604 4.48481 36.4604C4.96913 38.3874 6.50617 39.8023 8.32628 39.8124C8.57806 39.8223 10.1043 39.838 11.2191 38.6297C11.9802 37.805 12.3662 36.6402 12.3662 35.168V31.8633C12.3662 30.3618 13.4235 29.1403 14.7232 29.1403C16.0228 29.1403 17.08 30.3616 17.0802 31.8629V44.2845C17.0802 45.2267 17.254 45.9902 17.5347 46.6059H4.75333V46.6061ZM27.1916 53.1997C27.1896 53.2016 27.1877 53.2035 27.1858 53.2055C25.9039 54.4947 23.9532 54.3389 22.8372 52.8581C22.4377 52.3284 22.1849 51.6825 22.1057 50.99C22.1034 50.9706 22.1006 50.9511 22.0975 50.9319L21.7487 48.868C22.0932 48.8032 22.4227 48.6872 22.7323 48.5277H31.836L27.1916 53.1997ZM34.8993 21.1198C34.9122 21.1461 36.1932 23.7815 36.2121 27.0456V28.5265C36.2121 30.028 35.1548 31.2495 33.8551 31.2495C32.5554 31.2495 31.498 30.028 31.498 28.5265V26.6466C31.498 26.6337 31.5766 22.1365 27.4776 22.1365C25.2608 22.1365 23.4572 24.2201 23.4572 26.781V33.9387C23.4572 34.4694 23.8295 34.8995 24.2889 34.8995C24.7483 34.8995 25.1206 34.4694 25.1206 33.9387V26.781C25.1206 25.2795 26.1779 24.0581 27.4776 24.0581C29.9409 24.0581 29.8284 26.5805 29.8347 26.6743V28.5265C29.8347 31.0876 31.6383 33.1712 33.8551 33.1712C35.1577 33.1712 36.3171 32.4512 37.0523 31.3383L42.0133 41.2648C42.5621 42.3628 42.5621 43.7275 42.0133 44.8257C41.4645 45.9239 40.4416 46.6061 39.344 46.6061H24.5802C24.9232 45.9225 25.1207 45.1299 25.1207 44.2846V36.9494C25.1207 36.4186 24.7484 35.9886 24.289 35.9886C23.8296 35.9886 23.4573 36.4187 23.4573 36.9494V44.2846C23.4573 45.7861 22.4001 47.0076 21.1004 47.0076C21.0944 47.0076 20.4729 46.9922 19.878 46.6485C19.1145 46.2075 18.7435 45.4343 18.7435 44.2846V31.8629C18.7432 29.3021 16.9396 27.2187 14.7231 27.2187C12.5063 27.2187 10.7027 29.3024 10.7027 31.8634V35.1682C10.7027 36.0822 10.4963 36.7723 10.0893 37.2194C9.4302 37.9437 8.40295 37.8932 8.39858 37.8931C8.38097 37.8917 8.36336 37.891 8.34553 37.891C7.04583 37.891 5.9885 36.6697 5.9885 35.1682V30.4069C5.9885 27.6835 7.11441 25.3398 7.1225 25.3232L17.1642 5.17953C18.1685 3.16994 20.04 1.92165 22.0485 1.92165C24.0572 1.92165 25.9288 3.16994 26.9329 5.17966L34.8993 21.1198Z" fill="white"/>
<path d="M45.722 23.0467C45.5668 22.8674 45.3527 22.7648 45.1332 22.7648C44.9146 22.7648 44.7006 22.8672 44.5455 23.0467C44.3903 23.2247 44.3015 23.4733 44.3015 23.7257C44.3015 23.9793 44.3902 24.2266 44.5455 24.406C44.7007 24.5841 44.9146 24.6865 45.1332 24.6865C45.3526 24.6865 45.5667 24.5841 45.722 24.406C45.8762 24.2267 45.9649 23.9794 45.9649 23.7257C45.965 23.4733 45.8763 23.226 45.722 23.0467Z" fill="white"/>
<path d="M50.8231 24.0075C50.6679 23.8282 50.4537 23.7256 50.2342 23.7256C50.0157 23.7256 49.8016 23.8281 49.6464 24.0075C49.4912 24.1855 49.4024 24.4341 49.4024 24.6865C49.4024 24.9401 49.4911 25.1874 49.6464 25.3668C49.8016 25.5449 50.0156 25.6474 50.2342 25.6474C50.4536 25.6474 50.6678 25.5449 50.8231 25.3668C50.9772 25.1875 51.0659 24.9403 51.0659 24.6865C51.066 24.4341 50.9774 24.1868 50.8231 24.0075Z" fill="white"/>
<path d="M47.3854 28.2828C47.2302 28.1035 47.0161 28.0009 46.7966 28.0009C46.578 28.0009 46.364 28.1033 46.2088 28.2828C46.0536 28.4608 45.9648 28.7093 45.9648 28.9618C45.9648 29.2155 46.0535 29.4627 46.2088 29.6421C46.364 29.8202 46.5779 29.9226 46.7966 29.9226C47.016 29.9226 47.2301 29.82 47.3854 29.6421C47.5395 29.4628 47.6282 29.2155 47.6282 28.9618C47.6283 28.7093 47.5398 28.4621 47.3854 28.2828Z" fill="white"/>
<path d="M35.4862 35.0462C35.331 34.8669 35.1168 34.7643 34.8973 34.7643C34.6788 34.7643 34.4647 34.8668 34.3095 35.0462C34.1543 35.2243 34.0655 35.4728 34.0655 35.7252C34.0655 35.9789 34.1542 36.2261 34.3095 36.4055C34.4647 36.5835 34.6786 36.686 34.8973 36.686C35.1167 36.686 35.3309 36.5834 35.4862 36.4055C35.6403 36.2262 35.729 35.9789 35.729 35.7252C35.729 35.4728 35.6404 35.2256 35.4862 35.0462Z" fill="white"/>
<path d="M9.65988 43.2688C9.50468 43.0895 9.29052 42.9869 9.07101 42.9869C8.85248 42.9869 8.63843 43.0894 8.48323 43.2688C8.32802 43.4469 8.23921 43.6954 8.23921 43.9479C8.23921 44.2016 8.32791 44.4488 8.48323 44.6282C8.63843 44.8062 8.85237 44.9087 9.07101 44.9087C9.29041 44.9087 9.50457 44.8062 9.65988 44.6282C9.81399 44.4489 9.9027 44.2016 9.9027 43.9479C9.9027 43.6956 9.8141 43.4483 9.65988 43.2688Z" fill="white"/>
<path d="M14.3826 39.179C14.2274 38.9997 14.0132 38.8971 13.7937 38.8971C13.5752 38.8971 13.3611 38.9996 13.2059 39.179C13.0507 39.357 12.962 39.6056 12.962 39.8579C12.962 40.1116 13.0507 40.3588 13.2059 40.5382C13.3611 40.7163 13.5751 40.8187 13.7937 40.8187C14.0133 40.8187 14.2273 40.7163 14.3826 40.5382C14.5367 40.3589 14.6254 40.1116 14.6254 39.8579C14.6255 39.6056 14.5369 39.3583 14.3826 39.179Z" fill="white"/>
<path d="M29.3057 33.8035C27.871 33.8035 26.7038 35.1519 26.7038 36.8093C26.7038 38.4668 27.8709 39.8153 29.3057 39.8153C30.7404 39.8153 31.9075 38.4668 31.9075 36.8093C31.9075 35.1519 30.7404 33.8035 29.3057 33.8035ZM29.3057 37.8935C28.7883 37.8935 28.3673 37.407 28.3673 36.8093C28.3673 36.2115 28.7884 35.7253 29.3057 35.7253C29.8231 35.7253 30.244 36.2117 30.244 36.8093C30.2442 37.4071 29.8232 37.8935 29.3057 37.8935Z" fill="white"/>
<path d="M34.8972 38.8971C33.4626 38.8971 32.2955 40.2455 32.2955 41.9029C32.2955 43.5603 33.4626 44.9088 34.8972 44.9088C36.3318 44.9088 37.4991 43.5605 37.4991 41.9029C37.499 40.2455 36.3318 38.8971 34.8972 38.8971ZM34.8972 42.987C34.3797 42.987 33.9588 42.5006 33.9588 41.9029C33.9588 41.3051 34.3798 40.8189 34.8972 40.8189C35.4145 40.8189 35.8356 41.3052 35.8356 41.9029C35.8356 42.5006 35.4146 42.987 34.8972 42.987Z" fill="white"/>
<path d="M28.8219 12.803L26.9714 9.10016C26.7417 8.64047 26.2329 8.48328 25.8353 8.74851C25.4375 9.01386 25.3013 9.60142 25.531 10.061L27.3815 13.7638C27.5356 14.072 28 14.4337 28.5175 14.1154C28.9229 13.8661 29.0516 13.2625 28.8219 12.803Z" fill="white"/>
<path d="M30.1042 15.3687L29.9477 15.0558C29.7179 14.5961 29.2094 14.4389 28.8117 14.7041C28.4139 14.9695 28.2776 15.5571 28.5073 16.0166L28.6637 16.3295C28.8178 16.6378 29.3057 16.9959 29.7998 16.6811C30.2019 16.4249 30.3338 15.8282 30.1042 15.3687Z" fill="white"/>
</svg>
