<svg width="56" height="56" viewBox="0 0 56 56" fill="none" xmlns="http://www.w3.org/2000/svg">
<path d="M35.4667 18.7254C35.4667 18.9393 35.004 19.6168 34.5094 20.1041C34.1105 20.4964 34.2063 21.055 34.7328 21.3522C34.9402 21.471 35.1954 21.5305 35.4507 21.5305C35.8177 21.5305 36.1687 21.4116 36.392 21.2095C36.7271 20.8767 37.8439 19.7119 37.8439 18.7491C37.8439 16.5978 35.9294 15.0526 33.9031 13.4123L33.8872 13.4004C32.4194 12.2712 31.7014 10.6904 31.8769 8.95502C32.0684 7.02948 33.3766 5.21091 35.355 4.08174C39.0086 2.07299 44.2416 2.46524 46.7784 4.93754C47.943 6.12614 48.4376 7.62378 48.1345 9.05011C47.8473 10.31 46.9698 11.3917 45.6137 12.1048C44.2895 12.8061 42.5823 13.1033 40.939 12.8893C39.4553 12.6991 38.2108 12.1286 37.4131 11.2728C37.3972 11.2609 37.3972 11.249 37.3812 11.2371C36.6473 10.5121 36.3601 9.56121 36.6154 8.65787C36.8547 7.83773 37.4929 7.17211 38.4342 6.77987L38.4501 6.76798C39.3755 6.36386 40.5721 6.245 41.5134 6.45895C42.1356 6.61347 42.5664 6.87496 42.8057 7.2672C42.8217 7.29097 42.8376 7.31474 42.8536 7.33851C43.1248 7.69509 43.1727 8.19431 42.9493 8.51523C42.8376 8.70541 42.6462 8.8005 42.359 8.82427C41.7049 8.8837 41.2262 9.32349 41.306 9.81082C41.3858 10.2981 41.9761 10.6547 42.6302 10.5953C43.7151 10.5121 44.6086 10.0485 45.1031 9.32349C45.6775 8.46769 45.6296 7.3504 44.9755 6.48272C44.449 5.6507 43.4758 5.04451 42.2473 4.75924C40.6678 4.40266 38.7692 4.58095 37.2695 5.23469C35.7219 5.88842 34.669 6.97005 34.302 8.30129C33.9191 9.68007 34.3658 11.1777 35.4986 12.295C36.6633 13.5311 38.4661 14.3632 40.5721 14.6247C42.8536 14.9099 45.1989 14.5177 47.0336 13.5312C48.9003 12.5446 50.1447 11.047 50.5117 9.3116C50.9105 7.40983 50.2564 5.42486 48.7088 3.84402L48.6929 3.83213C45.3903 0.587233 38.6256 0.04048 33.935 2.61975C33.935 2.63164 33.9191 2.63164 33.9191 2.63164C31.3983 4.05796 29.755 6.36386 29.4997 8.78861C29.2764 11.0232 30.2177 13.0914 32.1641 14.6009C34.2063 16.2531 35.4667 17.3466 35.4667 18.7254Z" fill="white"/>
<path d="M12.3009 12.7823C14.1356 13.02 16.098 12.6753 17.6615 11.8195C19.2251 10.9756 20.2621 9.69193 20.5014 8.32504C20.7407 7.02946 20.2781 5.72198 19.2251 4.74733C18.2359 3.82022 16.8 3.26157 15.1886 3.17837C13.7208 3.07139 12.2051 3.45175 11.1202 4.1768C10.1789 4.80676 9.65242 5.66256 9.65242 6.57778C9.65242 7.5049 10.2906 8.42012 11.2638 8.93122C12.1094 9.37101 13.1145 9.46609 14.0878 9.19272C14.694 9.02631 15.0131 8.51521 14.7897 8.05165C14.5664 7.59998 13.8803 7.36226 13.2581 7.52867C13.0188 7.59998 12.8274 7.5881 12.6359 7.48112C12.3168 7.30283 12.0615 6.92248 12.0615 6.58967C12.0615 6.07857 12.4285 5.72199 12.7316 5.50804C13.3219 5.1158 14.1835 4.90185 14.9812 4.96128C14.9972 4.96128 14.9972 4.96128 15.0131 4.96128C15.9544 5.00882 16.784 5.34163 17.3744 5.8765C18.0125 6.47081 18.2997 7.27906 18.1402 8.08731V8.0992C17.9806 8.99065 17.2946 9.82267 16.2576 10.3932C15.2046 10.9637 13.9123 11.2015 12.6997 11.0351C12.6678 11.0351 12.6359 11.0232 12.604 11.0232C10.7852 10.8924 9.65242 10.1317 9.01425 9.52552C8.00912 8.55087 7.5624 7.23151 7.83362 5.99536C7.83362 5.98348 7.83362 5.98348 7.83362 5.97159C8.05698 4.80676 8.93448 3.73701 10.3066 2.96442C11.902 2.06108 14.008 1.64507 15.9385 1.84713C18.0764 2.09674 19.9909 3.02385 21.1875 4.37886C22.3202 5.66256 22.6872 7.14832 22.2086 8.56276C21.4268 10.4408 20.8365 12.2593 22.1128 13.959C22.6872 14.7673 24.3943 15.3735 24.9048 15.5399C25.0644 15.5874 25.2239 15.6112 25.3835 15.6112C25.8462 15.6112 26.2769 15.421 26.4684 15.0644C26.7236 14.6128 26.4524 14.0898 25.8462 13.8877C25.1601 13.6619 24.3624 13.2815 24.2188 13.1151C24.2029 13.1032 24.2029 13.0913 24.1869 13.0795C23.437 12.0929 23.7083 10.8924 24.49 9.05008C24.49 9.0382 24.506 9.01442 24.506 9.00253C25.1442 7.12454 24.6655 5.06825 23.1658 3.38043C21.5863 1.59752 19.0815 0.397036 16.2735 0.0642263H16.2576C13.7048 -0.197267 10.9288 0.34949 8.83875 1.52621C6.95613 2.58407 5.74359 4.06982 5.44046 5.69821C5.07351 7.43358 5.67977 9.21649 7.09972 10.5953C8.39203 11.8433 10.2427 12.6159 12.3009 12.7823Z" fill="white"/>
<path d="M46.6986 25.2389C41.7527 24.2761 35.1157 23.7531 28 23.7531C20.8843 23.7531 14.2473 24.288 9.30142 25.2389C3.12707 26.4394 0 28.2342 0 30.5519C0 37.3389 2.87179 43.7217 8.07293 48.4999C13.3538 53.3375 20.4217 56 28 56C35.5783 56 42.6462 53.3375 47.9271 48.4999C53.1282 43.7217 56 37.3508 56 30.5519C56 28.2223 52.8729 26.4394 46.6986 25.2389ZM28 25.5241C39.6946 25.5241 49.3311 26.9861 52.506 29.0543C52.49 29.0662 52.4741 29.0781 52.4581 29.0899C51.5009 29.922 47.9749 30.754 42.6462 31.3364C42.6781 31.2294 42.694 31.1106 42.694 30.9917C42.694 29.601 40.5402 28.6264 37.461 28.6264C34.3818 28.6264 32.2279 29.601 32.2279 30.9917C32.2279 31.3602 32.3715 31.693 32.6427 31.9901C31.0313 32.0377 29.3561 32.0615 27.6171 32.0615C21.4587 31.9901 15.6353 31.6217 11.2479 31.0393C6.39772 30.3855 4.11624 29.5773 3.6057 29.0424C3.58974 29.0305 3.58974 29.0186 3.57379 29.0068C6.82849 26.9742 16.4011 25.5241 28 25.5241ZM40.2849 30.9917C40.1732 31.17 39.2 31.5741 37.461 31.5741C35.7219 31.586 34.7647 31.17 34.637 30.9917C34.7487 30.8134 35.7219 30.4093 37.461 30.4093C39.216 30.4093 40.1732 30.8253 40.2849 30.9917ZM28 54.2171C13.9122 54.2171 2.44103 43.6504 2.39316 30.6351C6.03077 32.8103 17.502 33.7255 27.6011 33.8444H27.6171C38.0991 33.8444 49.7937 32.8697 53.6068 30.7065C53.5111 43.686 42.0558 54.2171 28 54.2171Z" fill="white"/>
<path d="M21.347 31.4434C23.9157 31.4434 26.5801 30.552 26.5801 29.0781C26.5801 27.6874 24.4262 26.7128 21.347 26.7128C18.2678 26.7128 16.114 27.6874 16.114 29.0781C16.1299 30.552 18.7784 31.4434 21.347 31.4434ZM21.347 28.4838C23.0063 28.4838 23.9635 28.8523 24.155 29.0305C23.8997 29.2445 22.8946 29.6486 21.347 29.6486C19.8154 29.6486 18.8103 29.2445 18.539 29.0305C18.7464 28.8523 19.7037 28.4838 21.347 28.4838Z" fill="white"/>
<path d="M43.6194 43.8406C43.8268 43.9594 44.082 44.0189 44.3214 44.0189C44.6883 44.0189 45.0553 43.8881 45.2946 43.6504C46.8102 42.1171 48.1185 40.2034 49.2832 37.8025C49.5065 37.3389 49.1875 36.8278 48.5652 36.6614C47.943 36.495 47.257 36.7327 47.0336 37.1963C45.9487 39.4427 44.7362 41.2019 43.3641 42.5925C42.9812 42.9848 43.0929 43.5434 43.6194 43.8406Z" fill="white"/>
<path d="M41.4017 46.3127C42.1066 46.3127 42.6781 45.8869 42.6781 45.3618C42.6781 44.8366 42.1066 44.4109 41.4017 44.4109C40.6968 44.4109 40.1254 44.8366 40.1254 45.3618C40.1254 45.8869 40.6968 46.3127 41.4017 46.3127Z" fill="white"/>
</svg>
