<svg width="56" height="56" viewBox="0 0 56 56" fill="none" xmlns="http://www.w3.org/2000/svg">
<path d="M47.7992 8.20101C42.5106 2.91254 35.4794 0 28.0001 0C20.5208 0 13.4897 2.91254 8.20117 8.20101C2.91244 13.4895 0 20.5209 0 28C0 35.4791 2.91255 42.5105 8.20117 47.799C13.4897 53.0875 20.521 56 28.0003 56C32.2526 56 36.3371 55.0709 40.14 53.2384C40.6237 53.0053 40.827 52.4241 40.594 51.9404C40.3608 51.4568 39.7797 51.2538 39.2959 51.4868C35.7584 53.1914 31.958 54.0556 28.0003 54.0556C13.6331 54.0552 1.94447 42.3669 1.94447 28C1.94447 13.6331 13.6331 1.94457 28.0001 1.94457C42.367 1.94457 54.0555 13.633 54.0555 27.9999C54.0555 36.6691 49.7608 44.746 42.5673 49.606C42.1223 49.9066 42.0053 50.5109 42.3058 50.956C42.6062 51.4008 43.2109 51.5178 43.6557 51.2173C51.3853 45.9953 56 37.316 56 27.9998C56.0001 20.5209 53.0877 13.4895 47.7992 8.20101Z" fill="white"/>
<path d="M38.2976 42.0732C38.0048 41.6227 37.4025 41.4956 36.9525 41.7884C34.2889 43.5216 31.1932 44.4378 28.0002 44.4378C19.7318 44.4378 12.7206 38.2615 11.6914 30.0713C11.6244 29.5385 11.1359 29.1609 10.6056 29.2279C10.0728 29.2949 9.69513 29.781 9.76207 30.3138C10.9131 39.4744 18.7538 46.3823 28.0002 46.3823C31.5707 46.3823 35.0331 45.3574 38.0131 43.4184C38.4631 43.1254 38.5905 42.5232 38.2976 42.0732Z" fill="white"/>
<path d="M50.3735 23.978C50.1188 19.183 47.6163 14.9063 43.5078 12.2448C41.4089 10.8852 39.3022 9.86592 37.0678 9.12885C31.4531 7.27703 25.8054 7.15978 20.7355 8.78968C20.2244 8.95407 19.943 9.5016 20.1073 10.0129C20.2716 10.5242 20.8196 10.8052 21.3305 10.641C26.0066 9.13771 31.2379 9.25343 36.4586 10.9755C38.562 11.6693 40.4659 12.5912 42.4505 13.8768C46.0831 16.23 48.2071 19.8539 48.4318 24.081C48.6668 28.506 46.7492 32.8156 43.3014 35.6092C43.1753 35.7115 43.0472 35.8108 42.9206 35.9046C40.5668 37.6495 37.1165 38.3818 33.9162 37.8144C31.688 37.4197 28.5444 36.209 26.2236 32.6832C22.0797 26.3878 17.5974 26.1504 15.1893 26.0226C15.0778 26.0166 14.9696 26.0109 14.8651 26.0049L14.6777 25.9942C13.274 25.9147 10.9244 25.7816 10.0024 24.4336C9.42038 23.5827 9.41786 22.2523 9.99449 20.4792C10.9575 17.5189 13.789 14.4116 17.3844 12.3701C17.8515 12.1049 18.015 11.5115 17.7498 11.0445C17.4846 10.5776 16.8911 10.4139 16.4242 10.6791C12.3639 12.9847 9.269 16.4234 8.14539 19.8776C7.37222 22.2542 7.45698 24.1564 8.39728 25.5313C9.85919 27.6688 12.9222 27.8423 14.5678 27.9356L14.7513 27.9461C14.8593 27.9524 14.9711 27.9582 15.0863 27.9645C17.4395 28.0891 20.9957 28.2778 24.5995 33.7523C27.3009 37.8562 30.9727 39.2677 33.577 39.729C34.3966 39.8744 35.2318 39.9451 36.0653 39.9451C39.0032 39.9451 41.9219 39.0656 44.0784 37.4669C44.2274 37.3565 44.3779 37.2396 44.5258 37.1199C48.4554 33.9359 50.6417 29.0229 50.3735 23.978Z" fill="white"/>
<path d="M37.8853 20.5296C35.0285 20.5296 32.7044 22.8538 32.7044 25.7105C32.7044 28.5672 35.0285 30.8913 37.8853 30.8913C40.742 30.8913 43.0662 28.5672 43.0662 25.7105C43.0662 22.8537 40.742 20.5296 37.8853 20.5296ZM37.8853 28.9468C36.1007 28.9468 34.6489 27.495 34.6489 25.7105C34.6489 23.9259 36.1007 22.4741 37.8853 22.4741C39.6698 22.4741 41.1217 23.926 41.1217 25.7105C41.1216 27.495 39.6698 28.9468 37.8853 28.9468Z" fill="white"/>
<path d="M23.1572 12.8911C22.6927 12.6217 22.0977 12.7798 21.8284 13.2444L17.1342 21.3379C16.8647 21.8024 17.0229 22.3973 17.4875 22.6666C17.6411 22.7557 17.8088 22.7981 17.9744 22.7981C18.3097 22.7981 18.636 22.6244 18.8163 22.3134L23.5105 14.2199C23.78 13.7555 23.6218 13.1605 23.1572 12.8911Z" fill="white"/>
<path d="M29.9951 13.053C29.5307 12.7836 28.9357 12.9418 28.6663 13.4063L22.4725 24.0852C22.2031 24.5497 22.3612 25.1446 22.8257 25.414C22.9794 25.503 23.1471 25.5454 23.3127 25.5454C23.648 25.5454 23.9743 25.3718 24.1545 25.0607L30.3483 14.3818C30.6177 13.9174 30.4596 13.3224 29.9951 13.053Z" fill="white"/>
<path d="M36.8353 14.577C36.3722 14.3061 35.7763 14.4621 35.5052 14.9256L27.369 28.842C27.0979 29.3055 27.254 29.9009 27.7175 30.1721C27.8716 30.2623 28.0406 30.3051 28.2073 30.3051C28.5413 30.3051 28.8667 30.1327 29.0475 29.8234L37.1837 15.9071C37.455 15.4435 37.2989 14.8479 36.8353 14.577Z" fill="white"/>
<path d="M35.6768 31.0172C35.2135 30.7464 34.6179 30.9023 34.3469 31.3659L33.547 32.734C33.276 33.1976 33.4321 33.793 33.8956 34.0641C34.0498 34.1544 34.2187 34.1971 34.3854 34.1971C34.7194 34.1971 35.0448 34.0248 35.2256 33.7155L36.0255 32.3473C36.2964 31.8836 36.1403 31.2882 35.6768 31.0172Z" fill="white"/>
<path d="M43.3769 17.8115C42.9134 17.5406 42.3179 17.6965 42.0467 18.1601L41.0439 19.8751C40.7729 20.3386 40.929 20.9341 41.3924 21.2052C41.5468 21.2953 41.7157 21.3382 41.8824 21.3382C42.2164 21.3382 42.5417 21.1658 42.7226 20.8566L43.7254 19.1416C43.9964 18.678 43.8403 18.0826 43.3769 17.8115Z" fill="white"/>
</svg>
